<svg height="275" viewBox="0 0 1304 275" width="1304" xmlns="http://www.w3.org/2000/svg" xmlns:xlink="http://www.w3.org/1999/xlink"><radialGradient id="a" cx="137.9" cy="-24.322" gradientUnits="userSpaceOnUse" r="277.81"><stop offset=".423" stop-color="#45d6f0"/><stop offset=".518" stop-color="#41cde9"/><stop offset=".674" stop-color="#37b4d7"/><stop offset=".87" stop-color="#278bba"/><stop offset="1" stop-color="#1b6da4"/></radialGradient><text transform="translate(816.992 339.843)"><tspan fill="#226590" font-family="HelveticaNeue-Bold" font-size="180" x="-491.85" y="-107.5">SourceDive</tspan></text><path d="m27.489 261.888c3.347 2.59 12.998-14.097 49.353-16.32 38.92-2.395 81.994 28.561 140.998 28.561 52.309 0 79.404-25.605 77.547-29.685-1.246-2.712-21.891-7.696-45.639-20.035-28.561-14.83-58.637-29.685-81.628-63.083-14.732-21.378-25.238-46.006-10.75-65.307 14.464-19.302 51.21-10.384 51.21-10.384l-50.086-54.166-95.358 25.996-48.254 120.963 5.204 61.594z" fill="url(#a)"/><path d="m136.456 67.335s11.655 3.714 27.267 11.85c25.971 13.56 41.705 34.889 57.757 36.208 16.663 1.344 25.19-8.258 21.549-28.292-3.396-18.691-30.98-40.631-30.98-40.631s25.19 4.74 25.19-9.699c0-14.83-13.584-21.965-34.963-29.319-14.243-4.886-52.553-15.734-103.909 3.714-22.087 8.356-49.06 23.797-69.534 53.384-26.778 38.701-32.202 89.031-27.12 127.243 6.157 46.152 25.361 69.949 25.825 70.144.464.196 2.981-54.264 24.457-77.889 18.299-20.132 37.014-11.874 59.247-12.974 26.216-1.295 37.919-28.366 17.909-49.011-17.176-17.737-45.639-16.149-45.639-16.149s9.431-3.763 27.34-5.375c20.571-1.882 24.627-13.829 26.093-18.3 3.25-9.871-.489-14.904-.489-14.904z" fill="#1b6da4"/><path d="m84.88 67.8c-1.368-8.063 22.38-15.344 47.252-11.435 38.7 6.084 69.338 41.388 82.336 46.544 19.155 7.622 25.898-8.039 16.296-24.995-9.895-17.517-36.086-32.421-35.109-38.211 1.76-10.286 28.586 5.375 30.223-6.059 1.099-7.574-18.935-18.471-37.968-23.333-15.319-3.909-47.496-8.722-91.962 10.652-57.806 25.239-82.8 75.447-86.929 128.049-3.91 49.89 15.147 87.076 15.147 87.076s1.295-37.235 19.961-57.733c13.634-14.953 31.127-20.572 50.111-16.956 31.664 6.059 45.468-16.834 30.247-33.374-9.969-10.824-22.747-14.195-35.964-14.635-22.844-.733-35.134 6.914-35.793 4.324-.978-3.933 11.409-13.046 27.119-19.594 20.67-8.6 45.615-2.712 49.524-20.01 1.906-8.429-2.858-13.047-16.492-14.049-17.224-1.246-27.901 4.325-27.999 3.739z" fill="#fff"/></svg>