<?xml version="1.0" standalone="no"?>
<svg xmlns:xlink="http://www.w3.org/1999/xlink" id="wave" style="transform:rotate(0deg); transition: 0.3s" viewBox="0 0 1440 490" version="1.1" xmlns="http://www.w3.org/2000/svg"><defs><linearGradient id="sw-gradient-0" x1="0" x2="0" y1="1" y2="0"><stop stop-color="rgba(23, 52, 72, 1)" offset="0%"/><stop stop-color="rgba(45.163, 110.252, 155.142, 1)" offset="100%"/></linearGradient></defs><path style="transform:translate(0, 0px); opacity:1" fill="url(#sw-gradient-0)" d="M0,196L26.7,187.8C53.3,180,107,163,160,130.7C213.3,98,267,49,320,49C373.3,49,427,98,480,155.2C533.3,212,587,278,640,277.7C693.3,278,747,212,800,196C853.3,180,907,212,960,228.7C1013.3,245,1067,245,1120,253.2C1173.3,261,1227,278,1280,261.3C1333.3,245,1387,196,1440,163.3C1493.3,131,1547,114,1600,98C1653.3,82,1707,65,1760,106.2C1813.3,147,1867,245,1920,285.8C1973.3,327,2027,310,2080,253.2C2133.3,196,2187,98,2240,57.2C2293.3,16,2347,33,2400,89.8C2453.3,147,2507,245,2560,310.3C2613.3,376,2667,408,2720,367.5C2773.3,327,2827,212,2880,147C2933.3,82,2987,65,3040,98C3093.3,131,3147,212,3200,277.7C3253.3,343,3307,392,3360,392C3413.3,392,3467,343,3520,277.7C3573.3,212,3627,131,3680,114.3C3733.3,98,3787,147,3813,171.5L3840,196L3840,490L3813.3,490C3786.7,490,3733,490,3680,490C3626.7,490,3573,490,3520,490C3466.7,490,3413,490,3360,490C3306.7,490,3253,490,3200,490C3146.7,490,3093,490,3040,490C2986.7,490,2933,490,2880,490C2826.7,490,2773,490,2720,490C2666.7,490,2613,490,2560,490C2506.7,490,2453,490,2400,490C2346.7,490,2293,490,2240,490C2186.7,490,2133,490,2080,490C2026.7,490,1973,490,1920,490C1866.7,490,1813,490,1760,490C1706.7,490,1653,490,1600,490C1546.7,490,1493,490,1440,490C1386.7,490,1333,490,1280,490C1226.7,490,1173,490,1120,490C1066.7,490,1013,490,960,490C906.7,490,853,490,800,490C746.7,490,693,490,640,490C586.7,490,533,490,480,490C426.7,490,373,490,320,490C266.7,490,213,490,160,490C106.7,490,53,490,27,490L0,490Z"/></svg>