<?xml version="1.0" standalone="no"?>
<svg xmlns:xlink="http://www.w3.org/1999/xlink" id="wave" style="transform:rotate(0deg); transition: 0.3s" viewBox="0 0 1440 240" version="1.1" xmlns="http://www.w3.org/2000/svg"><defs><linearGradient id="sw-gradient-0" x1="0" x2="0" y1="1" y2="0"><stop stop-color="rgba(23, 52, 72, 1)" offset="0%"/><stop stop-color="rgba(45.163, 110.252, 155.142, 1)" offset="100%"/></linearGradient></defs><path style="transform:translate(0, 0px); opacity:1" fill="url(#sw-gradient-0)" d="M0,96L26.7,92C53.3,88,107,80,160,64C213.3,48,267,24,320,24C373.3,24,427,48,480,76C533.3,104,587,136,640,136C693.3,136,747,104,800,96C853.3,88,907,104,960,112C1013.3,120,1067,120,1120,124C1173.3,128,1227,136,1280,128C1333.3,120,1387,96,1440,80C1493.3,64,1547,56,1600,48C1653.3,40,1707,32,1760,52C1813.3,72,1867,120,1920,140C1973.3,160,2027,152,2080,124C2133.3,96,2187,48,2240,28C2293.3,8,2347,16,2400,44C2453.3,72,2507,120,2560,152C2613.3,184,2667,200,2720,180C2773.3,160,2827,104,2880,72C2933.3,40,2987,32,3040,48C3093.3,64,3147,104,3200,136C3253.3,168,3307,192,3360,192C3413.3,192,3467,168,3520,136C3573.3,104,3627,64,3680,56C3733.3,48,3787,72,3813,84L3840,96L3840,240L3813.3,240C3786.7,240,3733,240,3680,240C3626.7,240,3573,240,3520,240C3466.7,240,3413,240,3360,240C3306.7,240,3253,240,3200,240C3146.7,240,3093,240,3040,240C2986.7,240,2933,240,2880,240C2826.7,240,2773,240,2720,240C2666.7,240,2613,240,2560,240C2506.7,240,2453,240,2400,240C2346.7,240,2293,240,2240,240C2186.7,240,2133,240,2080,240C2026.7,240,1973,240,1920,240C1866.7,240,1813,240,1760,240C1706.7,240,1653,240,1600,240C1546.7,240,1493,240,1440,240C1386.7,240,1333,240,1280,240C1226.7,240,1173,240,1120,240C1066.7,240,1013,240,960,240C906.7,240,853,240,800,240C746.7,240,693,240,640,240C586.7,240,533,240,480,240C426.7,240,373,240,320,240C266.7,240,213,240,160,240C106.7,240,53,240,27,240L0,240Z"/></svg>